<svg xmlns="http://www.w3.org/2000/svg" width="720" height="560" fill="none" viewBox="665 718 720 560"><path fill="#d11fb6" d="M680.881 1069.41c6.589 3.75 12.713 8.78 19.268 12.74 16.32 9.88 34.004 17.03 52.101 22.92 147.52 48.06 402.75 48.36 550.36 3.47 23.17-7.04 44.62-16.27 66.18-27.26-.23 27.15 1.42 65.54-2.26 92.23-.74 5.34-6.15 11.49-9.91 15.47-62.7 52.87-225.81 71.38-305.62 71.94-101.152.71-217.692-8.83-312.264-48.92-13.106-5.56-33.256-15.85-43.43-26.04a45.4 45.4 0 0 1-11.861-21.11c-3.182-12.39-2.472-78.57-2.564-95.44"/><path fill="#d11fb6" fill-rule="evenodd" d="M862.546 734.209c14.527-1.119 35.891-.429 51.153-.428l94.911.036 112.13-.054c20.28-.008 40.52-.182 60.8.308 19.67.084 33.95 17.309 33.75 36.374-.4 36.281-.27 72.634-.09 108.919.14 26.787 2.13 45.642-28.65 54.371-21.32.766-45.3.238-66.91.223l-119.01-.032-87.418.076c-15.631.01-31.718.383-47.312-.314-17.529-1.497-31.782-14.941-31.801-33.136-.038-36.669-.076-73.6-.164-110.289-.065-27.409-2.469-46.564 28.611-56.054m58.157 43.545c31.099-4.866 60.212 16.522 64.866 47.653s-16.932 60.097-48.094 64.539c-30.863 4.398-59.491-16.935-64.1-47.767s16.528-59.605 47.328-64.425m188.927.133c31.09-4.972 60.26 16.368 64.94 47.5s-16.93 60.103-48.11 64.488c-30.76 4.326-59.26-16.939-63.88-47.659s16.38-59.423 47.05-64.329"/><path fill="#d11fb6" d="M923.279 792.508c22.582-3.403 43.691 12.018 47.317 34.565 3.625 22.548-11.586 43.809-34.097 47.657-22.827 3.902-44.452-11.571-48.129-34.435s12.009-44.336 34.909-47.787M1112.15 792.592c22.59-3.53 43.8 11.848 47.47 34.423 3.66 22.576-11.58 43.876-34.14 47.681-22.74 3.837-44.27-11.572-47.97-34.343-3.7-22.77 11.84-44.201 34.64-47.761"/><path fill="#d11fb6" fill-rule="evenodd" d="M907.914 1000.54c46.838-1.494 93.926-.801 140.796-.761 62.25.051 261.42-4.852 306.53 30.271 4.16 3.24 8.47 7.67 8.92 13.22.39 4.66-2.02 8.89-4.87 12.39-33.91 41.61-168.06 56.88-220.05 62.12-39.98 3.61-80.12 5.27-120.27 4.99-73.983-.96-257.507-14.78-316.817-62.27-5.233-4.19-11.256-10.17-11.708-17.29-.269-4.24 1.716-8.01 4.546-11.04 28.658-30.66 169.72-30.84 212.923-31.63m-70.588 32.47c111.816 16.23 262.834 15.86 374.384-.3.54.26 1.08.53 1.62.8 11.39 5.84 41.08 26.68 45.58 38.98 5.3 14.52-30.93 16.01-40.05 17.21-42.39 5.13-82.95 6.96-125.5 8.37a2063 2063 0 0 1-223.262-4.41c-6.988-.58-15.587-1.01-22.411-2.14-23.301-3.87-82.983-2.64-39.51-38.15 9.655-7.89 18.102-14.44 29.149-20.36"/><path fill="#d11fb6" d="m788.928 773.502 29.003.097-.006 114.624-28.175-.099a26.7 26.7 0 0 1-17.028-5.428c-16.092-12.294-8.841-48.184-10.317-66.767-1.669-21.022 1.959-39.355 26.523-42.427M1230.54 773.575c9.39-.16 18.54-.404 28.11.014 35.56 1.555 26.34 42.721 27.53 67.002.65 13.159.97 28.289-7.3 39.447-11.93 11.373-31.82 8.315-48.22 8.104zM953.806 949.842l141.944.011-.07 33.326c-45.13 1.205-96.237-.01-141.846-.032zM717.296 1219.29c20.371 10.82 37.551 19.26 59.76 25.73 3.497 1.02 10.643 2.56 12.119 5.09-21.532 4.53-73.12-.18-71.879-30.82M1328.91 1223.11c1.17 5.85-2.95 12.4-7.49 15.71-16.41 11.94-37.81 13.41-57.09 11.5l-.5-1.05c23.6-7.15 43.47-13.77 65.08-26.16"/></svg>